<mxfile host="Electron" modified="2024-02-25T17:35:01.163Z" agent="Mozilla/5.0 (Windows NT 10.0; Win64; x64) AppleWebKit/537.36 (KHTML, like Gecko) draw.io/23.1.5 Chrome/120.0.6099.109 Electron/28.1.0 Safari/537.36" etag="NUwigc7tze_Nmri7CH5u" version="23.1.5" type="device">
  <diagram id="C5RBs43oDa-KdzZeNtuy" name="Page-1">
    <mxGraphModel dx="2327" dy="887" grid="1" gridSize="10" guides="1" tooltips="1" connect="1" arrows="1" fold="1" page="1" pageScale="1" pageWidth="827" pageHeight="1169" math="0" shadow="0">
      <root>
        <mxCell id="WIyWlLk6GJQsqaUBKTNV-0" />
        <mxCell id="WIyWlLk6GJQsqaUBKTNV-1" parent="WIyWlLk6GJQsqaUBKTNV-0" />
        <mxCell id="vYdWeMZYmvG9PT97Y72R-0" value="&lt;b&gt;Message&lt;/b&gt;" style="swimlane;fontStyle=0;childLayout=stackLayout;horizontal=1;startSize=26;fillColor=none;horizontalStack=0;resizeParent=1;resizeParentMax=0;resizeLast=0;collapsible=1;marginBottom=0;whiteSpace=wrap;html=1;" parent="WIyWlLk6GJQsqaUBKTNV-1" vertex="1">
          <mxGeometry x="40" y="560" width="140" height="168" as="geometry" />
        </mxCell>
        <mxCell id="vYdWeMZYmvG9PT97Y72R-1" value="+ Id" style="text;strokeColor=none;fillColor=none;align=left;verticalAlign=top;spacingLeft=4;spacingRight=4;overflow=hidden;rotatable=0;points=[[0,0.5],[1,0.5]];portConstraint=eastwest;whiteSpace=wrap;html=1;" parent="vYdWeMZYmvG9PT97Y72R-0" vertex="1">
          <mxGeometry y="26" width="140" height="26" as="geometry" />
        </mxCell>
        <mxCell id="vYdWeMZYmvG9PT97Y72R-2" value="+ SenderId" style="text;strokeColor=none;fillColor=none;align=left;verticalAlign=top;spacingLeft=4;spacingRight=4;overflow=hidden;rotatable=0;points=[[0,0.5],[1,0.5]];portConstraint=eastwest;whiteSpace=wrap;html=1;" parent="vYdWeMZYmvG9PT97Y72R-0" vertex="1">
          <mxGeometry y="52" width="140" height="28" as="geometry" />
        </mxCell>
        <mxCell id="vYdWeMZYmvG9PT97Y72R-19" value="+ ChatId" style="text;strokeColor=none;fillColor=none;align=left;verticalAlign=top;spacingLeft=4;spacingRight=4;overflow=hidden;rotatable=0;points=[[0,0.5],[1,0.5]];portConstraint=eastwest;whiteSpace=wrap;html=1;" parent="vYdWeMZYmvG9PT97Y72R-0" vertex="1">
          <mxGeometry y="80" width="140" height="28" as="geometry" />
        </mxCell>
        <mxCell id="vYdWeMZYmvG9PT97Y72R-4" value="+ SendTime" style="text;strokeColor=none;fillColor=none;align=left;verticalAlign=top;spacingLeft=4;spacingRight=4;overflow=hidden;rotatable=0;points=[[0,0.5],[1,0.5]];portConstraint=eastwest;whiteSpace=wrap;html=1;" parent="vYdWeMZYmvG9PT97Y72R-0" vertex="1">
          <mxGeometry y="108" width="140" height="28" as="geometry" />
        </mxCell>
        <mxCell id="vYdWeMZYmvG9PT97Y72R-3" value="+ Text" style="text;strokeColor=none;fillColor=none;align=left;verticalAlign=top;spacingLeft=4;spacingRight=4;overflow=hidden;rotatable=0;points=[[0,0.5],[1,0.5]];portConstraint=eastwest;whiteSpace=wrap;html=1;" parent="vYdWeMZYmvG9PT97Y72R-0" vertex="1">
          <mxGeometry y="136" width="140" height="32" as="geometry" />
        </mxCell>
        <mxCell id="vYdWeMZYmvG9PT97Y72R-13" value="&lt;b&gt;Dialogue&lt;/b&gt;" style="swimlane;fontStyle=0;childLayout=stackLayout;horizontal=1;startSize=26;fillColor=none;horizontalStack=0;resizeParent=1;resizeParentMax=0;resizeLast=0;collapsible=1;marginBottom=0;whiteSpace=wrap;html=1;" parent="WIyWlLk6GJQsqaUBKTNV-1" vertex="1">
          <mxGeometry x="220" y="980" width="140" height="108" as="geometry" />
        </mxCell>
        <mxCell id="vYdWeMZYmvG9PT97Y72R-14" value="+ Id" style="text;strokeColor=none;fillColor=none;align=left;verticalAlign=top;spacingLeft=4;spacingRight=4;overflow=hidden;rotatable=0;points=[[0,0.5],[1,0.5]];portConstraint=eastwest;whiteSpace=wrap;html=1;" parent="vYdWeMZYmvG9PT97Y72R-13" vertex="1">
          <mxGeometry y="26" width="140" height="26" as="geometry" />
        </mxCell>
        <mxCell id="vYdWeMZYmvG9PT97Y72R-15" value="+ User1Id" style="text;strokeColor=none;fillColor=none;align=left;verticalAlign=top;spacingLeft=4;spacingRight=4;overflow=hidden;rotatable=0;points=[[0,0.5],[1,0.5]];portConstraint=eastwest;whiteSpace=wrap;html=1;" parent="vYdWeMZYmvG9PT97Y72R-13" vertex="1">
          <mxGeometry y="52" width="140" height="28" as="geometry" />
        </mxCell>
        <mxCell id="vYdWeMZYmvG9PT97Y72R-16" value="+ User2Id" style="text;strokeColor=none;fillColor=none;align=left;verticalAlign=top;spacingLeft=4;spacingRight=4;overflow=hidden;rotatable=0;points=[[0,0.5],[1,0.5]];portConstraint=eastwest;whiteSpace=wrap;html=1;" parent="vYdWeMZYmvG9PT97Y72R-13" vertex="1">
          <mxGeometry y="80" width="140" height="28" as="geometry" />
        </mxCell>
        <mxCell id="vYdWeMZYmvG9PT97Y72R-28" value="Group" style="swimlane;fontStyle=1;align=center;verticalAlign=top;childLayout=stackLayout;horizontal=1;startSize=26;horizontalStack=0;resizeParent=1;resizeParentMax=0;resizeLast=0;collapsible=1;marginBottom=0;whiteSpace=wrap;html=1;" parent="WIyWlLk6GJQsqaUBKTNV-1" vertex="1">
          <mxGeometry x="448" y="980" width="230" height="168" as="geometry" />
        </mxCell>
        <mxCell id="vYdWeMZYmvG9PT97Y72R-29" value="+ Id" style="text;strokeColor=none;fillColor=none;align=left;verticalAlign=top;spacingLeft=4;spacingRight=4;overflow=hidden;rotatable=0;points=[[0,0.5],[1,0.5]];portConstraint=eastwest;whiteSpace=wrap;html=1;" parent="vYdWeMZYmvG9PT97Y72R-28" vertex="1">
          <mxGeometry y="26" width="230" height="26" as="geometry" />
        </mxCell>
        <mxCell id="vYdWeMZYmvG9PT97Y72R-33" value="+ UsersIds" style="text;strokeColor=none;fillColor=none;align=left;verticalAlign=top;spacingLeft=4;spacingRight=4;overflow=hidden;rotatable=0;points=[[0,0.5],[1,0.5]];portConstraint=eastwest;whiteSpace=wrap;html=1;" parent="vYdWeMZYmvG9PT97Y72R-28" vertex="1">
          <mxGeometry y="52" width="230" height="28" as="geometry" />
        </mxCell>
        <mxCell id="MECtr-8TMv1_bSW0iSWO-0" value="+ Name" style="text;strokeColor=none;fillColor=none;align=left;verticalAlign=top;spacingLeft=4;spacingRight=4;overflow=hidden;rotatable=0;points=[[0,0.5],[1,0.5]];portConstraint=eastwest;whiteSpace=wrap;html=1;" parent="vYdWeMZYmvG9PT97Y72R-28" vertex="1">
          <mxGeometry y="80" width="230" height="28" as="geometry" />
        </mxCell>
        <mxCell id="vYdWeMZYmvG9PT97Y72R-30" value="" style="line;strokeWidth=1;fillColor=none;align=left;verticalAlign=middle;spacingTop=-1;spacingLeft=3;spacingRight=3;rotatable=0;labelPosition=right;points=[];portConstraint=eastwest;strokeColor=inherit;" parent="vYdWeMZYmvG9PT97Y72R-28" vertex="1">
          <mxGeometry y="108" width="230" height="8" as="geometry" />
        </mxCell>
        <mxCell id="vYdWeMZYmvG9PT97Y72R-7" value="+ AddUser()" style="text;strokeColor=none;fillColor=none;align=left;verticalAlign=top;spacingLeft=4;spacingRight=4;overflow=hidden;rotatable=0;points=[[0,0.5],[1,0.5]];portConstraint=eastwest;whiteSpace=wrap;html=1;" parent="vYdWeMZYmvG9PT97Y72R-28" vertex="1">
          <mxGeometry y="116" width="230" height="26" as="geometry" />
        </mxCell>
        <mxCell id="vYdWeMZYmvG9PT97Y72R-41" value="&lt;span style=&quot;color: rgb(240, 240, 240); font-family: Helvetica; font-size: 12px; font-style: normal; font-variant-ligatures: normal; font-variant-caps: normal; font-weight: 400; letter-spacing: normal; orphans: 2; text-align: left; text-indent: 0px; text-transform: none; widows: 2; word-spacing: 0px; -webkit-text-stroke-width: 0px; background-color: rgb(27, 29, 30); text-decoration-thickness: initial; text-decoration-style: initial; text-decoration-color: initial; float: none; display: inline !important;&quot;&gt;&amp;nbsp;+ RemoveUser()&lt;/span&gt;" style="text;whiteSpace=wrap;html=1;" parent="vYdWeMZYmvG9PT97Y72R-28" vertex="1">
          <mxGeometry y="142" width="230" height="26" as="geometry" />
        </mxCell>
        <mxCell id="vYdWeMZYmvG9PT97Y72R-62" value="User" style="swimlane;fontStyle=1;align=center;verticalAlign=top;childLayout=stackLayout;horizontal=1;startSize=26;horizontalStack=0;resizeParent=1;resizeParentMax=0;resizeLast=0;collapsible=1;marginBottom=0;whiteSpace=wrap;html=1;" parent="WIyWlLk6GJQsqaUBKTNV-1" vertex="1">
          <mxGeometry x="150" y="144" width="306" height="242" as="geometry" />
        </mxCell>
        <mxCell id="vYdWeMZYmvG9PT97Y72R-56" value="+ AuthorizationToken" style="text;strokeColor=none;fillColor=none;align=left;verticalAlign=top;spacingLeft=4;spacingRight=4;overflow=hidden;rotatable=0;points=[[0,0.5],[1,0.5]];portConstraint=eastwest;whiteSpace=wrap;html=1;" parent="vYdWeMZYmvG9PT97Y72R-62" vertex="1">
          <mxGeometry y="26" width="306" height="26" as="geometry" />
        </mxCell>
        <mxCell id="QW4Zs6565_le4qF1r0x_-14" value="+ Id" style="text;strokeColor=none;fillColor=none;align=left;verticalAlign=top;spacingLeft=4;spacingRight=4;overflow=hidden;rotatable=0;points=[[0,0.5],[1,0.5]];portConstraint=eastwest;whiteSpace=wrap;html=1;" vertex="1" parent="vYdWeMZYmvG9PT97Y72R-62">
          <mxGeometry y="52" width="306" height="30" as="geometry" />
        </mxCell>
        <mxCell id="vYdWeMZYmvG9PT97Y72R-57" value="+ Login" style="text;strokeColor=none;fillColor=none;align=left;verticalAlign=top;spacingLeft=4;spacingRight=4;overflow=hidden;rotatable=0;points=[[0,0.5],[1,0.5]];portConstraint=eastwest;whiteSpace=wrap;html=1;" parent="vYdWeMZYmvG9PT97Y72R-62" vertex="1">
          <mxGeometry y="82" width="306" height="30" as="geometry" />
        </mxCell>
        <mxCell id="vYdWeMZYmvG9PT97Y72R-58" value="+ NickName" style="text;strokeColor=none;fillColor=none;align=left;verticalAlign=top;spacingLeft=4;spacingRight=4;overflow=hidden;rotatable=0;points=[[0,0.5],[1,0.5]];portConstraint=eastwest;whiteSpace=wrap;html=1;" parent="vYdWeMZYmvG9PT97Y72R-62" vertex="1">
          <mxGeometry y="112" width="306" height="28" as="geometry" />
        </mxCell>
        <mxCell id="vYdWeMZYmvG9PT97Y72R-66" value="" style="line;strokeWidth=1;fillColor=none;align=left;verticalAlign=middle;spacingTop=-1;spacingLeft=3;spacingRight=3;rotatable=0;labelPosition=right;points=[];portConstraint=eastwest;strokeColor=inherit;" parent="vYdWeMZYmvG9PT97Y72R-62" vertex="1">
          <mxGeometry y="140" width="306" height="24" as="geometry" />
        </mxCell>
        <mxCell id="vYdWeMZYmvG9PT97Y72R-67" value="+ ChangeName()" style="text;strokeColor=none;fillColor=none;align=left;verticalAlign=top;spacingLeft=4;spacingRight=4;overflow=hidden;rotatable=0;points=[[0,0.5],[1,0.5]];portConstraint=eastwest;whiteSpace=wrap;html=1;" parent="vYdWeMZYmvG9PT97Y72R-62" vertex="1">
          <mxGeometry y="164" width="306" height="26" as="geometry" />
        </mxCell>
        <mxCell id="vYdWeMZYmvG9PT97Y72R-68" value="&lt;span style=&quot;color: rgb(240, 240, 240); font-family: Helvetica; font-size: 12px; font-style: normal; font-variant-ligatures: normal; font-variant-caps: normal; font-weight: 400; letter-spacing: normal; orphans: 2; text-align: left; text-indent: 0px; text-transform: none; widows: 2; word-spacing: 0px; -webkit-text-stroke-width: 0px; background-color: rgb(27, 29, 30); text-decoration-thickness: initial; text-decoration-style: initial; text-decoration-color: initial; float: none; display: inline !important;&quot;&gt;&amp;nbsp;+ ChangePassword()&lt;/span&gt;" style="text;whiteSpace=wrap;html=1;" parent="vYdWeMZYmvG9PT97Y72R-62" vertex="1">
          <mxGeometry y="190" width="306" height="26" as="geometry" />
        </mxCell>
        <mxCell id="vYdWeMZYmvG9PT97Y72R-85" value="+ GetChats()" style="text;strokeColor=none;fillColor=none;align=left;verticalAlign=top;spacingLeft=4;spacingRight=4;overflow=hidden;rotatable=0;points=[[0,0.5],[1,0.5]];portConstraint=eastwest;whiteSpace=wrap;html=1;" parent="vYdWeMZYmvG9PT97Y72R-62" vertex="1">
          <mxGeometry y="216" width="306" height="26" as="geometry" />
        </mxCell>
        <mxCell id="vYdWeMZYmvG9PT97Y72R-73" value="SerealizationService" style="swimlane;fontStyle=1;align=center;verticalAlign=top;childLayout=stackLayout;horizontal=1;startSize=32;horizontalStack=0;resizeParent=1;resizeParentMax=0;resizeLast=0;collapsible=1;marginBottom=0;whiteSpace=wrap;html=1;" parent="WIyWlLk6GJQsqaUBKTNV-1" vertex="1">
          <mxGeometry x="-490" y="260" width="210" height="256" as="geometry" />
        </mxCell>
        <mxCell id="vYdWeMZYmvG9PT97Y72R-75" value="" style="line;strokeWidth=1;fillColor=none;align=left;verticalAlign=middle;spacingTop=-1;spacingLeft=3;spacingRight=3;rotatable=0;labelPosition=right;points=[];portConstraint=eastwest;strokeColor=inherit;" parent="vYdWeMZYmvG9PT97Y72R-73" vertex="1">
          <mxGeometry y="32" width="210" height="8" as="geometry" />
        </mxCell>
        <mxCell id="vYdWeMZYmvG9PT97Y72R-77" value="+ SerealizeMessage()" style="text;strokeColor=none;fillColor=none;align=left;verticalAlign=top;spacingLeft=4;spacingRight=4;overflow=hidden;rotatable=0;points=[[0,0.5],[1,0.5]];portConstraint=eastwest;whiteSpace=wrap;html=1;" parent="vYdWeMZYmvG9PT97Y72R-73" vertex="1">
          <mxGeometry y="40" width="210" height="26" as="geometry" />
        </mxCell>
        <mxCell id="vYdWeMZYmvG9PT97Y72R-76" value="+ SerealizeUser()" style="text;strokeColor=none;fillColor=none;align=left;verticalAlign=top;spacingLeft=4;spacingRight=4;overflow=hidden;rotatable=0;points=[[0,0.5],[1,0.5]];portConstraint=eastwest;whiteSpace=wrap;html=1;" parent="vYdWeMZYmvG9PT97Y72R-73" vertex="1">
          <mxGeometry y="66" width="210" height="26" as="geometry" />
        </mxCell>
        <mxCell id="vYdWeMZYmvG9PT97Y72R-78" value="&lt;span style=&quot;color: rgb(240, 240, 240); font-family: Helvetica; font-size: 12px; font-style: normal; font-variant-ligatures: normal; font-variant-caps: normal; font-weight: 400; letter-spacing: normal; orphans: 2; text-align: left; text-indent: 0px; text-transform: none; widows: 2; word-spacing: 0px; -webkit-text-stroke-width: 0px; background-color: rgb(27, 29, 30); text-decoration-thickness: initial; text-decoration-style: initial; text-decoration-color: initial; float: none; display: inline !important;&quot;&gt;&amp;nbsp;+ SerealizeDialogue()&lt;/span&gt;" style="text;whiteSpace=wrap;html=1;" parent="vYdWeMZYmvG9PT97Y72R-73" vertex="1">
          <mxGeometry y="92" width="210" height="24" as="geometry" />
        </mxCell>
        <mxCell id="vYdWeMZYmvG9PT97Y72R-79" value="&lt;span style=&quot;color: rgb(240, 240, 240); font-family: Helvetica; font-size: 12px; font-style: normal; font-variant-ligatures: normal; font-variant-caps: normal; font-weight: 400; letter-spacing: normal; orphans: 2; text-align: left; text-indent: 0px; text-transform: none; widows: 2; word-spacing: 0px; -webkit-text-stroke-width: 0px; background-color: rgb(27, 29, 30); text-decoration-thickness: initial; text-decoration-style: initial; text-decoration-color: initial; float: none; display: inline !important;&quot;&gt;&amp;nbsp;+ SerealizeGroup()&lt;/span&gt;" style="text;whiteSpace=wrap;html=1;" parent="vYdWeMZYmvG9PT97Y72R-73" vertex="1">
          <mxGeometry y="116" width="210" height="30" as="geometry" />
        </mxCell>
        <mxCell id="vYdWeMZYmvG9PT97Y72R-81" value="+ DeserealizeMessage()" style="text;strokeColor=none;fillColor=none;align=left;verticalAlign=top;spacingLeft=4;spacingRight=4;overflow=hidden;rotatable=0;points=[[0,0.5],[1,0.5]];portConstraint=eastwest;whiteSpace=wrap;html=1;" parent="vYdWeMZYmvG9PT97Y72R-73" vertex="1">
          <mxGeometry y="146" width="210" height="26" as="geometry" />
        </mxCell>
        <mxCell id="vYdWeMZYmvG9PT97Y72R-84" value="&lt;span style=&quot;color: rgb(240, 240, 240); font-family: Helvetica; font-size: 12px; font-style: normal; font-variant-ligatures: normal; font-variant-caps: normal; font-weight: 400; letter-spacing: normal; orphans: 2; text-align: left; text-indent: 0px; text-transform: none; widows: 2; word-spacing: 0px; -webkit-text-stroke-width: 0px; background-color: rgb(27, 29, 30); text-decoration-thickness: initial; text-decoration-style: initial; text-decoration-color: initial; float: none; display: inline !important;&quot;&gt;&amp;nbsp;+ DeserealizeGroup()&lt;/span&gt;" style="text;whiteSpace=wrap;html=1;" parent="vYdWeMZYmvG9PT97Y72R-73" vertex="1">
          <mxGeometry y="172" width="210" height="30" as="geometry" />
        </mxCell>
        <mxCell id="vYdWeMZYmvG9PT97Y72R-83" value="&lt;span style=&quot;color: rgb(240, 240, 240); font-family: Helvetica; font-size: 12px; font-style: normal; font-variant-ligatures: normal; font-variant-caps: normal; font-weight: 400; letter-spacing: normal; orphans: 2; text-align: left; text-indent: 0px; text-transform: none; widows: 2; word-spacing: 0px; -webkit-text-stroke-width: 0px; background-color: rgb(27, 29, 30); text-decoration-thickness: initial; text-decoration-style: initial; text-decoration-color: initial; float: none; display: inline !important;&quot;&gt;&amp;nbsp;+ DeserealizeDialogue()&lt;/span&gt;" style="text;whiteSpace=wrap;html=1;" parent="vYdWeMZYmvG9PT97Y72R-73" vertex="1">
          <mxGeometry y="202" width="210" height="24" as="geometry" />
        </mxCell>
        <mxCell id="vYdWeMZYmvG9PT97Y72R-82" value="+ DeserealizeUser()" style="text;strokeColor=none;fillColor=none;align=left;verticalAlign=top;spacingLeft=4;spacingRight=4;overflow=hidden;rotatable=0;points=[[0,0.5],[1,0.5]];portConstraint=eastwest;whiteSpace=wrap;html=1;" parent="vYdWeMZYmvG9PT97Y72R-73" vertex="1">
          <mxGeometry y="226" width="210" height="26" as="geometry" />
        </mxCell>
        <mxCell id="vYdWeMZYmvG9PT97Y72R-80" value="" style="line;strokeWidth=1;fillColor=none;align=left;verticalAlign=middle;spacingTop=-1;spacingLeft=3;spacingRight=3;rotatable=0;labelPosition=right;points=[];portConstraint=eastwest;strokeColor=inherit;" parent="vYdWeMZYmvG9PT97Y72R-73" vertex="1">
          <mxGeometry y="252" width="210" height="4" as="geometry" />
        </mxCell>
        <mxCell id="vYdWeMZYmvG9PT97Y72R-86" value="ServerService" style="swimlane;fontStyle=1;align=center;verticalAlign=top;childLayout=stackLayout;horizontal=1;startSize=26;horizontalStack=0;resizeParent=1;resizeParentMax=0;resizeLast=0;collapsible=1;marginBottom=0;whiteSpace=wrap;html=1;" parent="WIyWlLk6GJQsqaUBKTNV-1" vertex="1">
          <mxGeometry x="-480" y="634" width="200" height="314" as="geometry" />
        </mxCell>
        <mxCell id="vYdWeMZYmvG9PT97Y72R-88" value="" style="line;strokeWidth=1;fillColor=none;align=left;verticalAlign=middle;spacingTop=-1;spacingLeft=3;spacingRight=3;rotatable=0;labelPosition=right;points=[];portConstraint=eastwest;strokeColor=inherit;" parent="vYdWeMZYmvG9PT97Y72R-86" vertex="1">
          <mxGeometry y="26" width="200" height="8" as="geometry" />
        </mxCell>
        <mxCell id="g8jEjqZr6f_kXiXrBVSo-18" value="+ CreateUser()" style="text;strokeColor=none;fillColor=none;align=left;verticalAlign=top;spacingLeft=4;spacingRight=4;overflow=hidden;rotatable=0;points=[[0,0.5],[1,0.5]];portConstraint=eastwest;whiteSpace=wrap;html=1;" parent="vYdWeMZYmvG9PT97Y72R-86" vertex="1">
          <mxGeometry y="34" width="200" height="26" as="geometry" />
        </mxCell>
        <mxCell id="vYdWeMZYmvG9PT97Y72R-89" value="+ AuthorizeUser()" style="text;strokeColor=none;fillColor=none;align=left;verticalAlign=top;spacingLeft=4;spacingRight=4;overflow=hidden;rotatable=0;points=[[0,0.5],[1,0.5]];portConstraint=eastwest;whiteSpace=wrap;html=1;" parent="vYdWeMZYmvG9PT97Y72R-86" vertex="1">
          <mxGeometry y="60" width="200" height="26" as="geometry" />
        </mxCell>
        <mxCell id="g8jEjqZr6f_kXiXrBVSo-16" value="+ CreateChat()" style="text;strokeColor=none;fillColor=none;align=left;verticalAlign=top;spacingLeft=4;spacingRight=4;overflow=hidden;rotatable=0;points=[[0,0.5],[1,0.5]];portConstraint=eastwest;whiteSpace=wrap;html=1;" parent="vYdWeMZYmvG9PT97Y72R-86" vertex="1">
          <mxGeometry y="86" width="200" height="26" as="geometry" />
        </mxCell>
        <mxCell id="g8jEjqZr6f_kXiXrBVSo-17" value="+ GetUserChats()" style="text;strokeColor=none;fillColor=none;align=left;verticalAlign=top;spacingLeft=4;spacingRight=4;overflow=hidden;rotatable=0;points=[[0,0.5],[1,0.5]];portConstraint=eastwest;whiteSpace=wrap;html=1;" parent="vYdWeMZYmvG9PT97Y72R-86" vertex="1">
          <mxGeometry y="112" width="200" height="26" as="geometry" />
        </mxCell>
        <mxCell id="g8jEjqZr6f_kXiXrBVSo-19" value="+ CreateMessage()" style="text;strokeColor=none;fillColor=none;align=left;verticalAlign=top;spacingLeft=4;spacingRight=4;overflow=hidden;rotatable=0;points=[[0,0.5],[1,0.5]];portConstraint=eastwest;whiteSpace=wrap;html=1;" parent="vYdWeMZYmvG9PT97Y72R-86" vertex="1">
          <mxGeometry y="138" width="200" height="26" as="geometry" />
        </mxCell>
        <mxCell id="g8jEjqZr6f_kXiXrBVSo-20" value="+ EditMessage()" style="text;strokeColor=none;fillColor=none;align=left;verticalAlign=top;spacingLeft=4;spacingRight=4;overflow=hidden;rotatable=0;points=[[0,0.5],[1,0.5]];portConstraint=eastwest;whiteSpace=wrap;html=1;" parent="vYdWeMZYmvG9PT97Y72R-86" vertex="1">
          <mxGeometry y="164" width="200" height="26" as="geometry" />
        </mxCell>
        <mxCell id="g8jEjqZr6f_kXiXrBVSo-23" value="&lt;span style=&quot;color: rgb(240, 240, 240); font-family: Helvetica; font-size: 12px; font-style: normal; font-variant-ligatures: normal; font-variant-caps: normal; font-weight: 400; letter-spacing: normal; orphans: 2; text-align: left; text-indent: 0px; text-transform: none; widows: 2; word-spacing: 0px; -webkit-text-stroke-width: 0px; background-color: rgb(27, 29, 30); text-decoration-thickness: initial; text-decoration-style: initial; text-decoration-color: initial; float: none; display: inline !important;&quot;&gt;&amp;nbsp;+ DeleteMessage()&lt;/span&gt;" style="text;whiteSpace=wrap;html=1;" parent="vYdWeMZYmvG9PT97Y72R-86" vertex="1">
          <mxGeometry y="190" width="200" height="20" as="geometry" />
        </mxCell>
        <mxCell id="g8jEjqZr6f_kXiXrBVSo-24" value="+ GetChatMessages()" style="text;strokeColor=none;fillColor=none;align=left;verticalAlign=top;spacingLeft=4;spacingRight=4;overflow=hidden;rotatable=0;points=[[0,0.5],[1,0.5]];portConstraint=eastwest;whiteSpace=wrap;html=1;" parent="vYdWeMZYmvG9PT97Y72R-86" vertex="1">
          <mxGeometry y="210" width="200" height="26" as="geometry" />
        </mxCell>
        <mxCell id="g8jEjqZr6f_kXiXrBVSo-25" value="+ GetChatMembers()" style="text;strokeColor=none;fillColor=none;align=left;verticalAlign=top;spacingLeft=4;spacingRight=4;overflow=hidden;rotatable=0;points=[[0,0.5],[1,0.5]];portConstraint=eastwest;whiteSpace=wrap;html=1;" parent="vYdWeMZYmvG9PT97Y72R-86" vertex="1">
          <mxGeometry y="236" width="200" height="26" as="geometry" />
        </mxCell>
        <mxCell id="QW4Zs6565_le4qF1r0x_-56" value="+ AddUserToChat()" style="text;strokeColor=none;fillColor=none;align=left;verticalAlign=top;spacingLeft=4;spacingRight=4;overflow=hidden;rotatable=0;points=[[0,0.5],[1,0.5]];portConstraint=eastwest;whiteSpace=wrap;html=1;" vertex="1" parent="vYdWeMZYmvG9PT97Y72R-86">
          <mxGeometry y="262" width="200" height="26" as="geometry" />
        </mxCell>
        <mxCell id="QW4Zs6565_le4qF1r0x_-57" value="+ DeleteUserFromChat()" style="text;strokeColor=none;fillColor=none;align=left;verticalAlign=top;spacingLeft=4;spacingRight=4;overflow=hidden;rotatable=0;points=[[0,0.5],[1,0.5]];portConstraint=eastwest;whiteSpace=wrap;html=1;" vertex="1" parent="vYdWeMZYmvG9PT97Y72R-86">
          <mxGeometry y="288" width="200" height="26" as="geometry" />
        </mxCell>
        <mxCell id="vYdWeMZYmvG9PT97Y72R-91" value="&lt;font style=&quot;font-size: 29px;&quot;&gt;Client&lt;/font&gt;" style="text;html=1;align=center;verticalAlign=middle;resizable=0;points=[];autosize=1;strokeColor=none;fillColor=none;" parent="WIyWlLk6GJQsqaUBKTNV-1" vertex="1">
          <mxGeometry x="10" width="100" height="50" as="geometry" />
        </mxCell>
        <mxCell id="vYdWeMZYmvG9PT97Y72R-93" value="&lt;font style=&quot;font-size: 29px;&quot;&gt;Server&lt;br&gt;&lt;/font&gt;" style="text;html=1;align=center;verticalAlign=middle;resizable=0;points=[];autosize=1;strokeColor=none;fillColor=none;" parent="WIyWlLk6GJQsqaUBKTNV-1" vertex="1">
          <mxGeometry x="-800" y="1180" width="110" height="50" as="geometry" />
        </mxCell>
        <mxCell id="vYdWeMZYmvG9PT97Y72R-94" value="Server" style="swimlane;fontStyle=1;align=center;verticalAlign=top;childLayout=stackLayout;horizontal=1;startSize=26;horizontalStack=0;resizeParent=1;resizeParentMax=0;resizeLast=0;collapsible=1;marginBottom=0;whiteSpace=wrap;html=1;" parent="WIyWlLk6GJQsqaUBKTNV-1" vertex="1">
          <mxGeometry x="-430" y="1300" width="180" height="366" as="geometry" />
        </mxCell>
        <mxCell id="vYdWeMZYmvG9PT97Y72R-95" value="+ ActiveClients" style="text;strokeColor=none;fillColor=none;align=left;verticalAlign=top;spacingLeft=4;spacingRight=4;overflow=hidden;rotatable=0;points=[[0,0.5],[1,0.5]];portConstraint=eastwest;whiteSpace=wrap;html=1;" parent="vYdWeMZYmvG9PT97Y72R-94" vertex="1">
          <mxGeometry y="26" width="180" height="26" as="geometry" />
        </mxCell>
        <mxCell id="vYdWeMZYmvG9PT97Y72R-96" value="" style="line;strokeWidth=1;fillColor=none;align=left;verticalAlign=middle;spacingTop=-1;spacingLeft=3;spacingRight=3;rotatable=0;labelPosition=right;points=[];portConstraint=eastwest;strokeColor=inherit;" parent="vYdWeMZYmvG9PT97Y72R-94" vertex="1">
          <mxGeometry y="52" width="180" height="8" as="geometry" />
        </mxCell>
        <mxCell id="vYdWeMZYmvG9PT97Y72R-97" value="+ ProcessClientAsync" style="text;strokeColor=none;fillColor=none;align=left;verticalAlign=top;spacingLeft=4;spacingRight=4;overflow=hidden;rotatable=0;points=[[0,0.5],[1,0.5]];portConstraint=eastwest;whiteSpace=wrap;html=1;" parent="vYdWeMZYmvG9PT97Y72R-94" vertex="1">
          <mxGeometry y="60" width="180" height="26" as="geometry" />
        </mxCell>
        <mxCell id="QW4Zs6565_le4qF1r0x_-21" value="- CreateUserAsync()" style="text;strokeColor=none;fillColor=none;align=left;verticalAlign=top;spacingLeft=4;spacingRight=4;overflow=hidden;rotatable=0;points=[[0,0.5],[1,0.5]];portConstraint=eastwest;whiteSpace=wrap;html=1;" vertex="1" parent="vYdWeMZYmvG9PT97Y72R-94">
          <mxGeometry y="86" width="180" height="26" as="geometry" />
        </mxCell>
        <mxCell id="QW4Zs6565_le4qF1r0x_-29" value="- GetChatMembersAsync()" style="text;strokeColor=none;fillColor=none;align=left;verticalAlign=top;spacingLeft=4;spacingRight=4;overflow=hidden;rotatable=0;points=[[0,0.5],[1,0.5]];portConstraint=eastwest;whiteSpace=wrap;html=1;" vertex="1" parent="vYdWeMZYmvG9PT97Y72R-94">
          <mxGeometry y="112" width="180" height="26" as="geometry" />
        </mxCell>
        <mxCell id="QW4Zs6565_le4qF1r0x_-28" value="- GetChatMessagesAsync()" style="text;strokeColor=none;fillColor=none;align=left;verticalAlign=top;spacingLeft=4;spacingRight=4;overflow=hidden;rotatable=0;points=[[0,0.5],[1,0.5]];portConstraint=eastwest;whiteSpace=wrap;html=1;" vertex="1" parent="vYdWeMZYmvG9PT97Y72R-94">
          <mxGeometry y="138" width="180" height="26" as="geometry" />
        </mxCell>
        <mxCell id="QW4Zs6565_le4qF1r0x_-22" value="- AuthorizeUserAsync()" style="text;strokeColor=none;fillColor=none;align=left;verticalAlign=top;spacingLeft=4;spacingRight=4;overflow=hidden;rotatable=0;points=[[0,0.5],[1,0.5]];portConstraint=eastwest;whiteSpace=wrap;html=1;" vertex="1" parent="vYdWeMZYmvG9PT97Y72R-94">
          <mxGeometry y="164" width="180" height="26" as="geometry" />
        </mxCell>
        <mxCell id="QW4Zs6565_le4qF1r0x_-27" value="&lt;span style=&quot;color: rgb(240, 240, 240); font-family: Helvetica; font-size: 12px; font-style: normal; font-variant-ligatures: normal; font-variant-caps: normal; font-weight: 400; letter-spacing: normal; orphans: 2; text-align: left; text-indent: 0px; text-transform: none; widows: 2; word-spacing: 0px; -webkit-text-stroke-width: 0px; background-color: rgb(27, 29, 30); text-decoration-thickness: initial; text-decoration-style: initial; text-decoration-color: initial; float: none; display: inline !important;&quot;&gt;&amp;nbsp;- DeleteMessageAsync()&lt;/span&gt;" style="text;whiteSpace=wrap;html=1;" vertex="1" parent="vYdWeMZYmvG9PT97Y72R-94">
          <mxGeometry y="190" width="180" height="20" as="geometry" />
        </mxCell>
        <mxCell id="QW4Zs6565_le4qF1r0x_-26" value="- EditMessageAsync()" style="text;strokeColor=none;fillColor=none;align=left;verticalAlign=top;spacingLeft=4;spacingRight=4;overflow=hidden;rotatable=0;points=[[0,0.5],[1,0.5]];portConstraint=eastwest;whiteSpace=wrap;html=1;" vertex="1" parent="vYdWeMZYmvG9PT97Y72R-94">
          <mxGeometry y="210" width="180" height="26" as="geometry" />
        </mxCell>
        <mxCell id="QW4Zs6565_le4qF1r0x_-25" value="- CreateMessageAsync()" style="text;strokeColor=none;fillColor=none;align=left;verticalAlign=top;spacingLeft=4;spacingRight=4;overflow=hidden;rotatable=0;points=[[0,0.5],[1,0.5]];portConstraint=eastwest;whiteSpace=wrap;html=1;" vertex="1" parent="vYdWeMZYmvG9PT97Y72R-94">
          <mxGeometry y="236" width="180" height="26" as="geometry" />
        </mxCell>
        <mxCell id="QW4Zs6565_le4qF1r0x_-24" value="- GetUserChatsAsync()" style="text;strokeColor=none;fillColor=none;align=left;verticalAlign=top;spacingLeft=4;spacingRight=4;overflow=hidden;rotatable=0;points=[[0,0.5],[1,0.5]];portConstraint=eastwest;whiteSpace=wrap;html=1;" vertex="1" parent="vYdWeMZYmvG9PT97Y72R-94">
          <mxGeometry y="262" width="180" height="26" as="geometry" />
        </mxCell>
        <mxCell id="QW4Zs6565_le4qF1r0x_-23" value="- CreateChatAsync()" style="text;strokeColor=none;fillColor=none;align=left;verticalAlign=top;spacingLeft=4;spacingRight=4;overflow=hidden;rotatable=0;points=[[0,0.5],[1,0.5]];portConstraint=eastwest;whiteSpace=wrap;html=1;" vertex="1" parent="vYdWeMZYmvG9PT97Y72R-94">
          <mxGeometry y="288" width="180" height="26" as="geometry" />
        </mxCell>
        <mxCell id="QW4Zs6565_le4qF1r0x_-58" value="- AddUserToChatAsync()" style="text;strokeColor=none;fillColor=none;align=left;verticalAlign=top;spacingLeft=4;spacingRight=4;overflow=hidden;rotatable=0;points=[[0,0.5],[1,0.5]];portConstraint=eastwest;whiteSpace=wrap;html=1;" vertex="1" parent="vYdWeMZYmvG9PT97Y72R-94">
          <mxGeometry y="314" width="180" height="26" as="geometry" />
        </mxCell>
        <mxCell id="QW4Zs6565_le4qF1r0x_-59" value="- DeleteUserFromChatAsync()" style="text;strokeColor=none;fillColor=none;align=left;verticalAlign=top;spacingLeft=4;spacingRight=4;overflow=hidden;rotatable=0;points=[[0,0.5],[1,0.5]];portConstraint=eastwest;whiteSpace=wrap;html=1;" vertex="1" parent="vYdWeMZYmvG9PT97Y72R-94">
          <mxGeometry y="340" width="180" height="26" as="geometry" />
        </mxCell>
        <mxCell id="vYdWeMZYmvG9PT97Y72R-104" value="ChatWindows" style="swimlane;fontStyle=1;align=center;verticalAlign=top;childLayout=stackLayout;horizontal=1;startSize=26;horizontalStack=0;resizeParent=1;resizeParentMax=0;resizeLast=0;collapsible=1;marginBottom=0;whiteSpace=wrap;html=1;" parent="WIyWlLk6GJQsqaUBKTNV-1" vertex="1">
          <mxGeometry x="920" y="651.5" width="300" height="220" as="geometry" />
        </mxCell>
        <mxCell id="vYdWeMZYmvG9PT97Y72R-105" value="" style="line;strokeWidth=1;fillColor=none;align=left;verticalAlign=middle;spacingTop=-1;spacingLeft=3;spacingRight=3;rotatable=0;labelPosition=right;points=[];portConstraint=eastwest;strokeColor=inherit;" parent="vYdWeMZYmvG9PT97Y72R-104" vertex="1">
          <mxGeometry y="26" width="300" height="8" as="geometry" />
        </mxCell>
        <mxCell id="vYdWeMZYmvG9PT97Y72R-107" value="+ ShowMessages()" style="text;strokeColor=none;fillColor=none;align=left;verticalAlign=top;spacingLeft=4;spacingRight=4;overflow=hidden;rotatable=0;points=[[0,0.5],[1,0.5]];portConstraint=eastwest;whiteSpace=wrap;html=1;" parent="vYdWeMZYmvG9PT97Y72R-104" vertex="1">
          <mxGeometry y="34" width="300" height="26" as="geometry" />
        </mxCell>
        <mxCell id="4OF-5J0g7pYR-AGV3vyB-26" value="+ AddMessage()" style="text;strokeColor=none;fillColor=none;align=left;verticalAlign=top;spacingLeft=4;spacingRight=4;overflow=hidden;rotatable=0;points=[[0,0.5],[1,0.5]];portConstraint=eastwest;whiteSpace=wrap;html=1;" parent="vYdWeMZYmvG9PT97Y72R-104" vertex="1">
          <mxGeometry y="60" width="300" height="26" as="geometry" />
        </mxCell>
        <mxCell id="QW4Zs6565_le4qF1r0x_-50" value="+ EditMessage()" style="text;strokeColor=none;fillColor=none;align=left;verticalAlign=top;spacingLeft=4;spacingRight=4;overflow=hidden;rotatable=0;points=[[0,0.5],[1,0.5]];portConstraint=eastwest;whiteSpace=wrap;html=1;" vertex="1" parent="vYdWeMZYmvG9PT97Y72R-104">
          <mxGeometry y="86" width="300" height="26" as="geometry" />
        </mxCell>
        <mxCell id="QW4Zs6565_le4qF1r0x_-51" value="+ DeleteMessage()" style="text;strokeColor=none;fillColor=none;align=left;verticalAlign=top;spacingLeft=4;spacingRight=4;overflow=hidden;rotatable=0;points=[[0,0.5],[1,0.5]];portConstraint=eastwest;whiteSpace=wrap;html=1;" vertex="1" parent="vYdWeMZYmvG9PT97Y72R-104">
          <mxGeometry y="112" width="300" height="26" as="geometry" />
        </mxCell>
        <mxCell id="QW4Zs6565_le4qF1r0x_-54" value="+ AddUser()" style="text;strokeColor=none;fillColor=none;align=left;verticalAlign=top;spacingLeft=4;spacingRight=4;overflow=hidden;rotatable=0;points=[[0,0.5],[1,0.5]];portConstraint=eastwest;whiteSpace=wrap;html=1;" vertex="1" parent="vYdWeMZYmvG9PT97Y72R-104">
          <mxGeometry y="138" width="300" height="26" as="geometry" />
        </mxCell>
        <mxCell id="QW4Zs6565_le4qF1r0x_-55" value="+ DeleteMessage()" style="text;strokeColor=none;fillColor=none;align=left;verticalAlign=top;spacingLeft=4;spacingRight=4;overflow=hidden;rotatable=0;points=[[0,0.5],[1,0.5]];portConstraint=eastwest;whiteSpace=wrap;html=1;" vertex="1" parent="vYdWeMZYmvG9PT97Y72R-104">
          <mxGeometry y="164" width="300" height="26" as="geometry" />
        </mxCell>
        <mxCell id="QW4Zs6565_le4qF1r0x_-53" value="+ DeleteUser()" style="text;strokeColor=none;fillColor=none;align=left;verticalAlign=top;spacingLeft=4;spacingRight=4;overflow=hidden;rotatable=0;points=[[0,0.5],[1,0.5]];portConstraint=eastwest;whiteSpace=wrap;html=1;" vertex="1" parent="vYdWeMZYmvG9PT97Y72R-104">
          <mxGeometry y="190" width="300" height="26" as="geometry" />
        </mxCell>
        <mxCell id="vYdWeMZYmvG9PT97Y72R-114" value="" style="line;strokeWidth=1;fillColor=none;align=left;verticalAlign=middle;spacingTop=-1;spacingLeft=3;spacingRight=3;rotatable=0;labelPosition=right;points=[];portConstraint=eastwest;strokeColor=inherit;" parent="vYdWeMZYmvG9PT97Y72R-104" vertex="1">
          <mxGeometry y="216" width="300" height="4" as="geometry" />
        </mxCell>
        <mxCell id="vYdWeMZYmvG9PT97Y72R-116" value="&lt;font style=&quot;font-size: 20px;&quot;&gt;Presentation layer&lt;/font&gt;" style="text;html=1;align=center;verticalAlign=middle;resizable=0;points=[];autosize=1;strokeColor=none;fillColor=none;" parent="WIyWlLk6GJQsqaUBKTNV-1" vertex="1">
          <mxGeometry x="890" y="192" width="180" height="40" as="geometry" />
        </mxCell>
        <mxCell id="vYdWeMZYmvG9PT97Y72R-117" value="&lt;font style=&quot;font-size: 20px;&quot;&gt;Logick layer&lt;/font&gt;" style="text;html=1;align=center;verticalAlign=middle;resizable=0;points=[];autosize=1;strokeColor=none;fillColor=none;" parent="WIyWlLk6GJQsqaUBKTNV-1" vertex="1">
          <mxGeometry x="40" y="80" width="130" height="40" as="geometry" />
        </mxCell>
        <mxCell id="vYdWeMZYmvG9PT97Y72R-118" value="&lt;font style=&quot;font-size: 20px;&quot;&gt;Data layer&lt;/font&gt;" style="text;html=1;align=center;verticalAlign=middle;resizable=0;points=[];autosize=1;strokeColor=none;fillColor=none;" parent="WIyWlLk6GJQsqaUBKTNV-1" vertex="1">
          <mxGeometry x="-500" y="120" width="110" height="40" as="geometry" />
        </mxCell>
        <mxCell id="4OF-5J0g7pYR-AGV3vyB-2" value="" style="endArrow=diamondThin;endFill=0;endSize=24;html=1;rounded=0;" parent="WIyWlLk6GJQsqaUBKTNV-1" source="vYdWeMZYmvG9PT97Y72R-73" target="vYdWeMZYmvG9PT97Y72R-86" edge="1">
          <mxGeometry width="160" relative="1" as="geometry">
            <mxPoint x="-390" y="510" as="sourcePoint" />
            <mxPoint x="-28" y="342" as="targetPoint" />
          </mxGeometry>
        </mxCell>
        <mxCell id="4OF-5J0g7pYR-AGV3vyB-3" value="" style="endArrow=block;dashed=1;endFill=0;endSize=12;html=1;rounded=0;exitX=0.5;exitY=0;exitDx=0;exitDy=0;" parent="WIyWlLk6GJQsqaUBKTNV-1" source="vYdWeMZYmvG9PT97Y72R-13" target="QW4Zs6565_le4qF1r0x_-0" edge="1">
          <mxGeometry width="160" relative="1" as="geometry">
            <mxPoint x="68" y="840" as="sourcePoint" />
            <mxPoint x="418" y="725.9999999999998" as="targetPoint" />
            <Array as="points">
              <mxPoint x="290" y="940" />
              <mxPoint x="414" y="940" />
            </Array>
          </mxGeometry>
        </mxCell>
        <mxCell id="4OF-5J0g7pYR-AGV3vyB-4" value="" style="endArrow=block;dashed=1;endFill=0;endSize=12;html=1;rounded=0;exitX=0.482;exitY=0.005;exitDx=0;exitDy=0;exitPerimeter=0;" parent="WIyWlLk6GJQsqaUBKTNV-1" source="vYdWeMZYmvG9PT97Y72R-28" target="QW4Zs6565_le4qF1r0x_-0" edge="1">
          <mxGeometry width="160" relative="1" as="geometry">
            <mxPoint x="352" y="920" as="sourcePoint" />
            <mxPoint x="418" y="725.9999999999998" as="targetPoint" />
            <Array as="points">
              <mxPoint x="559" y="940" />
              <mxPoint x="414" y="940" />
            </Array>
          </mxGeometry>
        </mxCell>
        <mxCell id="4OF-5J0g7pYR-AGV3vyB-20" value="" style="endArrow=open;endSize=12;dashed=1;html=1;rounded=0;" parent="WIyWlLk6GJQsqaUBKTNV-1" source="vYdWeMZYmvG9PT97Y72R-86" target="vYdWeMZYmvG9PT97Y72R-62" edge="1">
          <mxGeometry width="160" relative="1" as="geometry">
            <mxPoint x="-130" y="560" as="sourcePoint" />
            <mxPoint x="233" y="441.4680851063829" as="targetPoint" />
            <Array as="points">
              <mxPoint x="-120" y="791" />
              <mxPoint x="-120" y="265" />
            </Array>
          </mxGeometry>
        </mxCell>
        <mxCell id="4OF-5J0g7pYR-AGV3vyB-21" value="" style="endArrow=open;endSize=12;dashed=1;html=1;rounded=0;" parent="WIyWlLk6GJQsqaUBKTNV-1" source="vYdWeMZYmvG9PT97Y72R-86" target="vYdWeMZYmvG9PT97Y72R-0" edge="1">
          <mxGeometry width="160" relative="1" as="geometry">
            <mxPoint x="-257.67999999999984" y="684.6919999999998" as="sourcePoint" />
            <mxPoint x="-40" y="650" as="targetPoint" />
            <Array as="points">
              <mxPoint x="-120" y="790" />
              <mxPoint x="-120" y="644" />
            </Array>
          </mxGeometry>
        </mxCell>
        <mxCell id="4OF-5J0g7pYR-AGV3vyB-22" value="" style="endArrow=open;endSize=12;dashed=1;html=1;rounded=0;" parent="WIyWlLk6GJQsqaUBKTNV-1" source="vYdWeMZYmvG9PT97Y72R-86" target="QW4Zs6565_le4qF1r0x_-0" edge="1">
          <mxGeometry width="160" relative="1" as="geometry">
            <mxPoint x="-210" y="770" as="sourcePoint" />
            <mxPoint x="298" y="722.4117647058822" as="targetPoint" />
            <Array as="points" />
          </mxGeometry>
        </mxCell>
        <mxCell id="4OF-5J0g7pYR-AGV3vyB-25" value="" style="endArrow=open;endSize=12;dashed=1;html=1;rounded=0;" parent="WIyWlLk6GJQsqaUBKTNV-1" source="vYdWeMZYmvG9PT97Y72R-104" target="QW4Zs6565_le4qF1r0x_-0" edge="1">
          <mxGeometry width="160" relative="1" as="geometry">
            <mxPoint x="660" y="710" as="sourcePoint" />
            <mxPoint x="536.3846153846148" y="725.9999999999998" as="targetPoint" />
            <Array as="points">
              <mxPoint x="840" y="760" />
              <mxPoint x="840" y="790" />
            </Array>
          </mxGeometry>
        </mxCell>
        <mxCell id="4OF-5J0g7pYR-AGV3vyB-27" value="MainWindows" style="swimlane;fontStyle=1;align=center;verticalAlign=top;childLayout=stackLayout;horizontal=1;startSize=26;horizontalStack=0;resizeParent=1;resizeParentMax=0;resizeLast=0;collapsible=1;marginBottom=0;whiteSpace=wrap;html=1;" parent="WIyWlLk6GJQsqaUBKTNV-1" vertex="1">
          <mxGeometry x="920" y="450" width="300" height="90" as="geometry" />
        </mxCell>
        <mxCell id="4OF-5J0g7pYR-AGV3vyB-28" value="" style="line;strokeWidth=1;fillColor=none;align=left;verticalAlign=middle;spacingTop=-1;spacingLeft=3;spacingRight=3;rotatable=0;labelPosition=right;points=[];portConstraint=eastwest;strokeColor=inherit;" parent="4OF-5J0g7pYR-AGV3vyB-27" vertex="1">
          <mxGeometry y="26" width="300" height="8" as="geometry" />
        </mxCell>
        <mxCell id="4OF-5J0g7pYR-AGV3vyB-29" value="+ ShowChats()" style="text;strokeColor=none;fillColor=none;align=left;verticalAlign=top;spacingLeft=4;spacingRight=4;overflow=hidden;rotatable=0;points=[[0,0.5],[1,0.5]];portConstraint=eastwest;whiteSpace=wrap;html=1;" parent="4OF-5J0g7pYR-AGV3vyB-27" vertex="1">
          <mxGeometry y="34" width="300" height="26" as="geometry" />
        </mxCell>
        <mxCell id="4OF-5J0g7pYR-AGV3vyB-30" value="+ SellectChat()" style="text;strokeColor=none;fillColor=none;align=left;verticalAlign=top;spacingLeft=4;spacingRight=4;overflow=hidden;rotatable=0;points=[[0,0.5],[1,0.5]];portConstraint=eastwest;whiteSpace=wrap;html=1;" parent="4OF-5J0g7pYR-AGV3vyB-27" vertex="1">
          <mxGeometry y="60" width="300" height="26" as="geometry" />
        </mxCell>
        <mxCell id="4OF-5J0g7pYR-AGV3vyB-31" value="" style="line;strokeWidth=1;fillColor=none;align=left;verticalAlign=middle;spacingTop=-1;spacingLeft=3;spacingRight=3;rotatable=0;labelPosition=right;points=[];portConstraint=eastwest;strokeColor=inherit;" parent="4OF-5J0g7pYR-AGV3vyB-27" vertex="1">
          <mxGeometry y="86" width="300" height="4" as="geometry" />
        </mxCell>
        <mxCell id="4OF-5J0g7pYR-AGV3vyB-35" value="" style="endArrow=diamondThin;endFill=0;endSize=24;html=1;rounded=0;" parent="WIyWlLk6GJQsqaUBKTNV-1" source="vYdWeMZYmvG9PT97Y72R-104" target="4OF-5J0g7pYR-AGV3vyB-27" edge="1">
          <mxGeometry width="160" relative="1" as="geometry">
            <mxPoint x="860" y="590" as="sourcePoint" />
            <mxPoint x="1020" y="590" as="targetPoint" />
          </mxGeometry>
        </mxCell>
        <mxCell id="4OF-5J0g7pYR-AGV3vyB-36" value="AothorzationWindows" style="swimlane;fontStyle=1;align=center;verticalAlign=top;childLayout=stackLayout;horizontal=1;startSize=26;horizontalStack=0;resizeParent=1;resizeParentMax=0;resizeLast=0;collapsible=1;marginBottom=0;whiteSpace=wrap;html=1;" parent="WIyWlLk6GJQsqaUBKTNV-1" vertex="1">
          <mxGeometry x="920" y="280" width="300" height="64" as="geometry" />
        </mxCell>
        <mxCell id="4OF-5J0g7pYR-AGV3vyB-37" value="" style="line;strokeWidth=1;fillColor=none;align=left;verticalAlign=middle;spacingTop=-1;spacingLeft=3;spacingRight=3;rotatable=0;labelPosition=right;points=[];portConstraint=eastwest;strokeColor=inherit;" parent="4OF-5J0g7pYR-AGV3vyB-36" vertex="1">
          <mxGeometry y="26" width="300" height="8" as="geometry" />
        </mxCell>
        <mxCell id="4OF-5J0g7pYR-AGV3vyB-38" value="+ Authorizate()" style="text;strokeColor=none;fillColor=none;align=left;verticalAlign=top;spacingLeft=4;spacingRight=4;overflow=hidden;rotatable=0;points=[[0,0.5],[1,0.5]];portConstraint=eastwest;whiteSpace=wrap;html=1;" parent="4OF-5J0g7pYR-AGV3vyB-36" vertex="1">
          <mxGeometry y="34" width="300" height="26" as="geometry" />
        </mxCell>
        <mxCell id="4OF-5J0g7pYR-AGV3vyB-40" value="" style="line;strokeWidth=1;fillColor=none;align=left;verticalAlign=middle;spacingTop=-1;spacingLeft=3;spacingRight=3;rotatable=0;labelPosition=right;points=[];portConstraint=eastwest;strokeColor=inherit;" parent="4OF-5J0g7pYR-AGV3vyB-36" vertex="1">
          <mxGeometry y="60" width="300" height="4" as="geometry" />
        </mxCell>
        <mxCell id="4OF-5J0g7pYR-AGV3vyB-41" value="" style="endArrow=diamondThin;endFill=0;endSize=24;html=1;rounded=0;" parent="WIyWlLk6GJQsqaUBKTNV-1" source="4OF-5J0g7pYR-AGV3vyB-36" target="4OF-5J0g7pYR-AGV3vyB-27" edge="1">
          <mxGeometry width="160" relative="1" as="geometry">
            <mxPoint x="1290" y="482" as="sourcePoint" />
            <mxPoint x="1290" y="370" as="targetPoint" />
          </mxGeometry>
        </mxCell>
        <mxCell id="4OF-5J0g7pYR-AGV3vyB-44" value="" style="endArrow=diamondThin;endFill=0;endSize=24;html=1;rounded=0;" parent="WIyWlLk6GJQsqaUBKTNV-1" source="QW4Zs6565_le4qF1r0x_-30" target="vYdWeMZYmvG9PT97Y72R-94" edge="1">
          <mxGeometry width="160" relative="1" as="geometry">
            <mxPoint x="-333" y="1680" as="sourcePoint" />
            <mxPoint x="40" y="1090" as="targetPoint" />
          </mxGeometry>
        </mxCell>
        <mxCell id="g8jEjqZr6f_kXiXrBVSo-0" value="AuthorizationService" style="swimlane;fontStyle=1;align=center;verticalAlign=top;childLayout=stackLayout;horizontal=1;startSize=26;horizontalStack=0;resizeParent=1;resizeParentMax=0;resizeLast=0;collapsible=1;marginBottom=0;whiteSpace=wrap;html=1;" parent="WIyWlLk6GJQsqaUBKTNV-1" vertex="1">
          <mxGeometry x="440" y="430" width="306" height="102" as="geometry" />
        </mxCell>
        <mxCell id="g8jEjqZr6f_kXiXrBVSo-4" value="" style="line;strokeWidth=1;fillColor=none;align=left;verticalAlign=middle;spacingTop=-1;spacingLeft=3;spacingRight=3;rotatable=0;labelPosition=right;points=[];portConstraint=eastwest;strokeColor=inherit;" parent="g8jEjqZr6f_kXiXrBVSo-0" vertex="1">
          <mxGeometry y="26" width="306" height="24" as="geometry" />
        </mxCell>
        <mxCell id="g8jEjqZr6f_kXiXrBVSo-8" value="&lt;span style=&quot;color: rgb(240, 240, 240); font-family: Helvetica; font-size: 12px; font-style: normal; font-variant-ligatures: normal; font-variant-caps: normal; font-weight: 400; letter-spacing: normal; orphans: 2; text-align: left; text-indent: 0px; text-transform: none; widows: 2; word-spacing: 0px; -webkit-text-stroke-width: 0px; background-color: rgb(27, 29, 30); text-decoration-thickness: initial; text-decoration-style: initial; text-decoration-color: initial; float: none; display: inline !important;&quot;&gt;&amp;nbsp;+ CreateUser()&lt;/span&gt;" style="text;whiteSpace=wrap;html=1;" parent="g8jEjqZr6f_kXiXrBVSo-0" vertex="1">
          <mxGeometry y="50" width="306" height="26" as="geometry" />
        </mxCell>
        <mxCell id="g8jEjqZr6f_kXiXrBVSo-9" value="&lt;span style=&quot;color: rgb(240, 240, 240); font-family: Helvetica; font-size: 12px; font-style: normal; font-variant-ligatures: normal; font-variant-caps: normal; font-weight: 400; letter-spacing: normal; orphans: 2; text-align: left; text-indent: 0px; text-transform: none; widows: 2; word-spacing: 0px; -webkit-text-stroke-width: 0px; background-color: rgb(27, 29, 30); text-decoration-thickness: initial; text-decoration-style: initial; text-decoration-color: initial; float: none; display: inline !important;&quot;&gt;&amp;nbsp;+ AuthorizeUser()&lt;/span&gt;" style="text;whiteSpace=wrap;html=1;" parent="g8jEjqZr6f_kXiXrBVSo-0" vertex="1">
          <mxGeometry y="76" width="306" height="26" as="geometry" />
        </mxCell>
        <mxCell id="g8jEjqZr6f_kXiXrBVSo-12" value="" style="endArrow=open;endSize=12;dashed=1;html=1;rounded=0;" parent="WIyWlLk6GJQsqaUBKTNV-1" source="4OF-5J0g7pYR-AGV3vyB-36" target="g8jEjqZr6f_kXiXrBVSo-0" edge="1">
          <mxGeometry width="160" relative="1" as="geometry">
            <mxPoint x="690" y="310" as="sourcePoint" />
            <mxPoint x="850" y="310" as="targetPoint" />
            <Array as="points">
              <mxPoint x="840" y="310" />
              <mxPoint x="840" y="480" />
            </Array>
          </mxGeometry>
        </mxCell>
        <mxCell id="g8jEjqZr6f_kXiXrBVSo-14" value="" style="endArrow=open;endSize=12;dashed=1;html=1;rounded=0;" parent="WIyWlLk6GJQsqaUBKTNV-1" source="4OF-5J0g7pYR-AGV3vyB-27" target="QW4Zs6565_le4qF1r0x_-0" edge="1">
          <mxGeometry width="160" relative="1" as="geometry">
            <mxPoint x="620" y="580" as="sourcePoint" />
            <mxPoint x="538" y="722.7867298578199" as="targetPoint" />
            <Array as="points">
              <mxPoint x="840" y="495" />
              <mxPoint x="840" y="790" />
            </Array>
          </mxGeometry>
        </mxCell>
        <mxCell id="QW4Zs6565_le4qF1r0x_-0" value="&lt;b&gt;&amp;lt;&amp;lt;Interface&amp;gt;&amp;gt;&lt;br&gt;IChat&lt;/b&gt;" style="swimlane;fontStyle=1;align=center;verticalAlign=top;childLayout=stackLayout;horizontal=1;startSize=36;horizontalStack=0;resizeParent=1;resizeParentMax=0;resizeLast=0;collapsible=1;marginBottom=0;whiteSpace=wrap;html=1;" vertex="1" parent="WIyWlLk6GJQsqaUBKTNV-1">
          <mxGeometry x="299" y="691" width="230" height="200" as="geometry" />
        </mxCell>
        <mxCell id="vYdWeMZYmvG9PT97Y72R-61" value="+ IsGroup" style="text;strokeColor=none;fillColor=none;align=left;verticalAlign=top;spacingLeft=4;spacingRight=4;overflow=hidden;rotatable=0;points=[[0,0.5],[1,0.5]];portConstraint=eastwest;whiteSpace=wrap;html=1;" parent="QW4Zs6565_le4qF1r0x_-0" vertex="1">
          <mxGeometry y="36" width="230" height="26" as="geometry" />
        </mxCell>
        <mxCell id="QW4Zs6565_le4qF1r0x_-4" value="" style="line;strokeWidth=1;fillColor=none;align=left;verticalAlign=middle;spacingTop=-1;spacingLeft=3;spacingRight=3;rotatable=0;labelPosition=right;points=[];portConstraint=eastwest;strokeColor=inherit;" vertex="1" parent="QW4Zs6565_le4qF1r0x_-0">
          <mxGeometry y="62" width="230" height="8" as="geometry" />
        </mxCell>
        <mxCell id="vYdWeMZYmvG9PT97Y72R-39" value="+ GetMessages()" style="text;strokeColor=none;fillColor=none;align=left;verticalAlign=top;spacingLeft=4;spacingRight=4;overflow=hidden;rotatable=0;points=[[0,0.5],[1,0.5]];portConstraint=eastwest;whiteSpace=wrap;html=1;" parent="QW4Zs6565_le4qF1r0x_-0" vertex="1">
          <mxGeometry y="70" width="230" height="26" as="geometry" />
        </mxCell>
        <mxCell id="vYdWeMZYmvG9PT97Y72R-31" value="+ GetUsers()" style="text;strokeColor=none;fillColor=none;align=left;verticalAlign=top;spacingLeft=4;spacingRight=4;overflow=hidden;rotatable=0;points=[[0,0.5],[1,0.5]];portConstraint=eastwest;whiteSpace=wrap;html=1;" parent="QW4Zs6565_le4qF1r0x_-0" vertex="1">
          <mxGeometry y="96" width="230" height="26" as="geometry" />
        </mxCell>
        <mxCell id="SwTR6SI4VqlThLhRppjI-0" value="+ AddMessage()" style="text;strokeColor=none;fillColor=none;align=left;verticalAlign=top;spacingLeft=4;spacingRight=4;overflow=hidden;rotatable=0;points=[[0,0.5],[1,0.5]];portConstraint=eastwest;whiteSpace=wrap;html=1;" parent="QW4Zs6565_le4qF1r0x_-0" vertex="1">
          <mxGeometry y="122" width="230" height="26" as="geometry" />
        </mxCell>
        <mxCell id="QW4Zs6565_le4qF1r0x_-48" value="+ EditMessage()" style="text;strokeColor=none;fillColor=none;align=left;verticalAlign=top;spacingLeft=4;spacingRight=4;overflow=hidden;rotatable=0;points=[[0,0.5],[1,0.5]];portConstraint=eastwest;whiteSpace=wrap;html=1;" vertex="1" parent="QW4Zs6565_le4qF1r0x_-0">
          <mxGeometry y="148" width="230" height="26" as="geometry" />
        </mxCell>
        <mxCell id="QW4Zs6565_le4qF1r0x_-49" value="+ DeleteMessage()" style="text;strokeColor=none;fillColor=none;align=left;verticalAlign=top;spacingLeft=4;spacingRight=4;overflow=hidden;rotatable=0;points=[[0,0.5],[1,0.5]];portConstraint=eastwest;whiteSpace=wrap;html=1;" vertex="1" parent="QW4Zs6565_le4qF1r0x_-0">
          <mxGeometry y="174" width="230" height="26" as="geometry" />
        </mxCell>
        <mxCell id="QW4Zs6565_le4qF1r0x_-8" value="" style="endArrow=diamondThin;endFill=0;endSize=24;html=1;rounded=0;exitX=0.998;exitY=0.352;exitDx=0;exitDy=0;exitPerimeter=0;" edge="1" parent="WIyWlLk6GJQsqaUBKTNV-1" source="vYdWeMZYmvG9PT97Y72R-19" target="QW4Zs6565_le4qF1r0x_-0">
          <mxGeometry width="160" relative="1" as="geometry">
            <mxPoint x="160" y="630" as="sourcePoint" />
            <mxPoint x="320" y="630" as="targetPoint" />
            <Array as="points">
              <mxPoint x="414" y="650" />
            </Array>
          </mxGeometry>
        </mxCell>
        <mxCell id="QW4Zs6565_le4qF1r0x_-9" value="" style="endArrow=diamondThin;endFill=0;endSize=24;html=1;rounded=0;" edge="1" parent="WIyWlLk6GJQsqaUBKTNV-1" source="vYdWeMZYmvG9PT97Y72R-62" target="QW4Zs6565_le4qF1r0x_-0">
          <mxGeometry width="160" relative="1" as="geometry">
            <mxPoint x="187" y="560" as="sourcePoint" />
            <mxPoint x="419" y="607" as="targetPoint" />
            <Array as="points">
              <mxPoint x="300" y="650" />
              <mxPoint x="414" y="650" />
            </Array>
          </mxGeometry>
        </mxCell>
        <mxCell id="QW4Zs6565_le4qF1r0x_-15" value="" style="endArrow=open;endSize=12;dashed=1;html=1;rounded=0;" edge="1" parent="WIyWlLk6GJQsqaUBKTNV-1" source="g8jEjqZr6f_kXiXrBVSo-0" target="vYdWeMZYmvG9PT97Y72R-62">
          <mxGeometry width="160" relative="1" as="geometry">
            <mxPoint x="540" y="320" as="sourcePoint" />
            <mxPoint x="700" y="320" as="targetPoint" />
            <Array as="points">
              <mxPoint x="593" y="265" />
            </Array>
          </mxGeometry>
        </mxCell>
        <mxCell id="QW4Zs6565_le4qF1r0x_-16" value="ParsingService" style="swimlane;fontStyle=1;align=center;verticalAlign=top;childLayout=stackLayout;horizontal=1;startSize=26;horizontalStack=0;resizeParent=1;resizeParentMax=0;resizeLast=0;collapsible=1;marginBottom=0;whiteSpace=wrap;html=1;" vertex="1" parent="WIyWlLk6GJQsqaUBKTNV-1">
          <mxGeometry x="-750" y="1427" width="200" height="112" as="geometry" />
        </mxCell>
        <mxCell id="QW4Zs6565_le4qF1r0x_-18" value="" style="line;strokeWidth=1;fillColor=none;align=left;verticalAlign=middle;spacingTop=-1;spacingLeft=3;spacingRight=3;rotatable=0;labelPosition=right;points=[];portConstraint=eastwest;strokeColor=inherit;" vertex="1" parent="QW4Zs6565_le4qF1r0x_-16">
          <mxGeometry y="26" width="200" height="8" as="geometry" />
        </mxCell>
        <mxCell id="QW4Zs6565_le4qF1r0x_-19" value="+ ParseUserInformation()" style="text;strokeColor=none;fillColor=none;align=left;verticalAlign=top;spacingLeft=4;spacingRight=4;overflow=hidden;rotatable=0;points=[[0,0.5],[1,0.5]];portConstraint=eastwest;whiteSpace=wrap;html=1;" vertex="1" parent="QW4Zs6565_le4qF1r0x_-16">
          <mxGeometry y="34" width="200" height="26" as="geometry" />
        </mxCell>
        <mxCell id="QW4Zs6565_le4qF1r0x_-41" value="+ ParseChatInformation()" style="text;strokeColor=none;fillColor=none;align=left;verticalAlign=top;spacingLeft=4;spacingRight=4;overflow=hidden;rotatable=0;points=[[0,0.5],[1,0.5]];portConstraint=eastwest;whiteSpace=wrap;html=1;" vertex="1" parent="QW4Zs6565_le4qF1r0x_-16">
          <mxGeometry y="60" width="200" height="26" as="geometry" />
        </mxCell>
        <mxCell id="QW4Zs6565_le4qF1r0x_-46" value="+ ParseMessageInformation()" style="text;strokeColor=none;fillColor=none;align=left;verticalAlign=top;spacingLeft=4;spacingRight=4;overflow=hidden;rotatable=0;points=[[0,0.5],[1,0.5]];portConstraint=eastwest;whiteSpace=wrap;html=1;" vertex="1" parent="QW4Zs6565_le4qF1r0x_-16">
          <mxGeometry y="86" width="200" height="26" as="geometry" />
        </mxCell>
        <mxCell id="QW4Zs6565_le4qF1r0x_-30" value="DbService" style="swimlane;fontStyle=1;align=center;verticalAlign=top;childLayout=stackLayout;horizontal=1;startSize=26;horizontalStack=0;resizeParent=1;resizeParentMax=0;resizeLast=0;collapsible=1;marginBottom=0;whiteSpace=wrap;html=1;" vertex="1" parent="WIyWlLk6GJQsqaUBKTNV-1">
          <mxGeometry x="-426.5" y="1760" width="176.5" height="314" as="geometry" />
        </mxCell>
        <mxCell id="QW4Zs6565_le4qF1r0x_-31" value="" style="line;strokeWidth=1;fillColor=none;align=left;verticalAlign=middle;spacingTop=-1;spacingLeft=3;spacingRight=3;rotatable=0;labelPosition=right;points=[];portConstraint=eastwest;strokeColor=inherit;" vertex="1" parent="QW4Zs6565_le4qF1r0x_-30">
          <mxGeometry y="26" width="176.5" height="8" as="geometry" />
        </mxCell>
        <mxCell id="QW4Zs6565_le4qF1r0x_-32" value="+ CreateChatAsync()" style="text;strokeColor=none;fillColor=none;align=left;verticalAlign=top;spacingLeft=4;spacingRight=4;overflow=hidden;rotatable=0;points=[[0,0.5],[1,0.5]];portConstraint=eastwest;whiteSpace=wrap;html=1;" vertex="1" parent="QW4Zs6565_le4qF1r0x_-30">
          <mxGeometry y="34" width="176.5" height="26" as="geometry" />
        </mxCell>
        <mxCell id="QW4Zs6565_le4qF1r0x_-33" value="+ GetUserChatsAsync()" style="text;strokeColor=none;fillColor=none;align=left;verticalAlign=top;spacingLeft=4;spacingRight=4;overflow=hidden;rotatable=0;points=[[0,0.5],[1,0.5]];portConstraint=eastwest;whiteSpace=wrap;html=1;" vertex="1" parent="QW4Zs6565_le4qF1r0x_-30">
          <mxGeometry y="60" width="176.5" height="26" as="geometry" />
        </mxCell>
        <mxCell id="QW4Zs6565_le4qF1r0x_-34" value="+ CreateMessageAsync()" style="text;strokeColor=none;fillColor=none;align=left;verticalAlign=top;spacingLeft=4;spacingRight=4;overflow=hidden;rotatable=0;points=[[0,0.5],[1,0.5]];portConstraint=eastwest;whiteSpace=wrap;html=1;" vertex="1" parent="QW4Zs6565_le4qF1r0x_-30">
          <mxGeometry y="86" width="176.5" height="26" as="geometry" />
        </mxCell>
        <mxCell id="QW4Zs6565_le4qF1r0x_-35" value="+ EditMessageAsync()" style="text;strokeColor=none;fillColor=none;align=left;verticalAlign=top;spacingLeft=4;spacingRight=4;overflow=hidden;rotatable=0;points=[[0,0.5],[1,0.5]];portConstraint=eastwest;whiteSpace=wrap;html=1;" vertex="1" parent="QW4Zs6565_le4qF1r0x_-30">
          <mxGeometry y="112" width="176.5" height="26" as="geometry" />
        </mxCell>
        <mxCell id="QW4Zs6565_le4qF1r0x_-36" value="&lt;span style=&quot;color: rgb(240, 240, 240); font-family: Helvetica; font-size: 12px; font-style: normal; font-variant-ligatures: normal; font-variant-caps: normal; font-weight: 400; letter-spacing: normal; orphans: 2; text-align: left; text-indent: 0px; text-transform: none; widows: 2; word-spacing: 0px; -webkit-text-stroke-width: 0px; background-color: rgb(27, 29, 30); text-decoration-thickness: initial; text-decoration-style: initial; text-decoration-color: initial; float: none; display: inline !important;&quot;&gt;&amp;nbsp;+ DeleteMessageAsync()&lt;/span&gt;" style="text;whiteSpace=wrap;html=1;" vertex="1" parent="QW4Zs6565_le4qF1r0x_-30">
          <mxGeometry y="138" width="176.5" height="20" as="geometry" />
        </mxCell>
        <mxCell id="QW4Zs6565_le4qF1r0x_-37" value="+ GetChatMessagesAsync()" style="text;strokeColor=none;fillColor=none;align=left;verticalAlign=top;spacingLeft=4;spacingRight=4;overflow=hidden;rotatable=0;points=[[0,0.5],[1,0.5]];portConstraint=eastwest;whiteSpace=wrap;html=1;" vertex="1" parent="QW4Zs6565_le4qF1r0x_-30">
          <mxGeometry y="158" width="176.5" height="26" as="geometry" />
        </mxCell>
        <mxCell id="QW4Zs6565_le4qF1r0x_-38" value="+ GetChatMembersAsync()" style="text;strokeColor=none;fillColor=none;align=left;verticalAlign=top;spacingLeft=4;spacingRight=4;overflow=hidden;rotatable=0;points=[[0,0.5],[1,0.5]];portConstraint=eastwest;whiteSpace=wrap;html=1;" vertex="1" parent="QW4Zs6565_le4qF1r0x_-30">
          <mxGeometry y="184" width="176.5" height="26" as="geometry" />
        </mxCell>
        <mxCell id="QW4Zs6565_le4qF1r0x_-39" value="+ GetUserAsync()" style="text;strokeColor=none;fillColor=none;align=left;verticalAlign=top;spacingLeft=4;spacingRight=4;overflow=hidden;rotatable=0;points=[[0,0.5],[1,0.5]];portConstraint=eastwest;whiteSpace=wrap;html=1;" vertex="1" parent="QW4Zs6565_le4qF1r0x_-30">
          <mxGeometry y="210" width="176.5" height="26" as="geometry" />
        </mxCell>
        <mxCell id="QW4Zs6565_le4qF1r0x_-40" value="+ CreateUserAsync()" style="text;strokeColor=none;fillColor=none;align=left;verticalAlign=top;spacingLeft=4;spacingRight=4;overflow=hidden;rotatable=0;points=[[0,0.5],[1,0.5]];portConstraint=eastwest;whiteSpace=wrap;html=1;" vertex="1" parent="QW4Zs6565_le4qF1r0x_-30">
          <mxGeometry y="236" width="176.5" height="26" as="geometry" />
        </mxCell>
        <mxCell id="QW4Zs6565_le4qF1r0x_-60" value="+ AddUserToChatAsync()" style="text;strokeColor=none;fillColor=none;align=left;verticalAlign=top;spacingLeft=4;spacingRight=4;overflow=hidden;rotatable=0;points=[[0,0.5],[1,0.5]];portConstraint=eastwest;whiteSpace=wrap;html=1;" vertex="1" parent="QW4Zs6565_le4qF1r0x_-30">
          <mxGeometry y="262" width="176.5" height="26" as="geometry" />
        </mxCell>
        <mxCell id="QW4Zs6565_le4qF1r0x_-61" value="+ DeleteUserFromChatAsync()" style="text;strokeColor=none;fillColor=none;align=left;verticalAlign=top;spacingLeft=4;spacingRight=4;overflow=hidden;rotatable=0;points=[[0,0.5],[1,0.5]];portConstraint=eastwest;whiteSpace=wrap;html=1;" vertex="1" parent="QW4Zs6565_le4qF1r0x_-30">
          <mxGeometry y="288" width="176.5" height="26" as="geometry" />
        </mxCell>
        <mxCell id="QW4Zs6565_le4qF1r0x_-47" value="" style="endArrow=diamondThin;endFill=0;endSize=24;html=1;rounded=0;" edge="1" parent="WIyWlLk6GJQsqaUBKTNV-1" source="QW4Zs6565_le4qF1r0x_-16" target="vYdWeMZYmvG9PT97Y72R-94">
          <mxGeometry width="160" relative="1" as="geometry">
            <mxPoint x="-495.66999999999996" y="1706" as="sourcePoint" />
            <mxPoint x="-495.66999999999996" y="1620" as="targetPoint" />
          </mxGeometry>
        </mxCell>
      </root>
    </mxGraphModel>
  </diagram>
</mxfile>
